<?xml version="1.0" encoding="UTF-8" standalone="no"?>
<!-- Created with Inkscape (http://www.inkscape.org/) -->

<svg
   xmlns:osb="http://www.openswatchbook.org/uri/2009/osb"
   xmlns:dc="http://purl.org/dc/elements/1.1/"
   xmlns:cc="http://creativecommons.org/ns#"
   xmlns:rdf="http://www.w3.org/1999/02/22-rdf-syntax-ns#"
   xmlns:svg="http://www.w3.org/2000/svg"
   xmlns="http://www.w3.org/2000/svg"
   xmlns:sodipodi="http://sodipodi.sourceforge.net/DTD/sodipodi-0.dtd"
   xmlns:inkscape="http://www.inkscape.org/namespaces/inkscape"
   version="1.1"
   id="svg3753"
   xml:space="preserve"
   width="354.49219"
   height="120.00001"
   viewBox="0 0 354.49219 120.00001"
   sodipodi:docname="oftenon.ai.svg"
   inkscape:version="0.92.3 (2405546, 2018-03-11)"><metadata
     id="metadata3759"><rdf:RDF><cc:Work
         rdf:about=""><dc:format>image/svg+xml</dc:format><dc:type
           rdf:resource="http://purl.org/dc/dcmitype/StillImage" /><dc:title /></cc:Work></rdf:RDF></metadata><defs
     id="defs3757"><linearGradient
       id="linearGradient1777"
       osb:paint="solid"><stop
         style="stop-color:#0000fa;stop-opacity:1;"
         offset="0"
         id="stop1775" /></linearGradient><clipPath
       clipPathUnits="userSpaceOnUse"
       id="clipPath3769"><path
         d="M 0,74 H 163 V 0 H 0 Z"
         id="path3767"
         inkscape:connector-curvature="0" /></clipPath><linearGradient
       x1="0"
       y1="0"
       x2="1"
       y2="0"
       gradientUnits="userSpaceOnUse"
       gradientTransform="matrix(-23.421122,-0.0765396,-0.0765396,23.421122,65.587067,21.963551)"
       spreadMethod="pad"
       id="linearGradient3815"><stop
         style="stop-opacity:1;stop-color:#3f6ec1"
         offset="0"
         id="stop3811" /><stop
         style="stop-opacity:1;stop-color:#518df8"
         offset="1"
         id="stop3813" /></linearGradient><clipPath
       clipPathUnits="userSpaceOnUse"
       id="clipPath3825"><path
         d="M 0,74 H 163 V 0 H 0 Z"
         id="path3823"
         inkscape:connector-curvature="0" /></clipPath><linearGradient
       x1="0"
       y1="0"
       x2="1"
       y2="0"
       gradientUnits="userSpaceOnUse"
       gradientTransform="matrix(27.8186,0,0,27.8186,-22.2965,63.7246)"
       spreadMethod="pad"
       id="linearGradient3833"><stop
         style="stop-opacity:1;stop-color:#3f6ec1"
         offset="0"
         id="stop3829" /><stop
         style="stop-opacity:1;stop-color:#518df8"
         offset="1"
         id="stop3831" /></linearGradient></defs><sodipodi:namedview
     pagecolor="#ffffff"
     bordercolor="#666666"
     borderopacity="1"
     objecttolerance="10"
     gridtolerance="10"
     guidetolerance="10"
     inkscape:pageopacity="0"
     inkscape:pageshadow="2"
     inkscape:window-width="1920"
     inkscape:window-height="1017"
     id="namedview3755"
     showgrid="false"
     inkscape:zoom="4"
     inkscape:cx="13.325958"
     inkscape:cy="53.838947"
     inkscape:window-x="1912"
     inkscape:window-y="-8"
     inkscape:window-maximized="1"
     inkscape:current-layer="g3761"
     showguides="false"
     fit-margin-top="10"
     fit-margin-right="10"
     fit-margin-bottom="10"
     fit-margin-left="10"
     inkscape:snap-global="false"><inkscape:grid
       type="xygrid"
       id="grid56"
       originx="-29.697333"
       originy="2.1343252" /><sodipodi:guide
       position="-0.75933364,15.093869"
       orientation="0,217.33333"
       inkscape:locked="false"
       id="guide58" /><sodipodi:guide
       position="216.574,15.093869"
       orientation="-98.666664,0"
       inkscape:locked="false"
       id="guide60" /><sodipodi:guide
       position="216.574,113.76053"
       orientation="0,-217.33333"
       inkscape:locked="false"
       id="guide62" /><sodipodi:guide
       position="-0.75933364,113.76053"
       orientation="98.666664,0"
       inkscape:locked="false"
       id="guide64" /></sodipodi:namedview><g
     id="g3761"
     inkscape:groupmode="layer"
     inkscape:label="text"
     transform="matrix(1.3333333,0,0,-1.3333333,-0.75933359,104.90613)"
     style="display:inline"><text
   transform="scale(1,-1)"
   style="font-variant:normal;font-weight:normal;font-stretch:normal;font-size:30px;font-family:'Copperplate Gothic Bold';-inkscape-font-specification:'Copperplate Gothic Bold, ';writing-mode:lr-tb;fill:#083b66;fill-opacity:1;fill-rule:nonzero;stroke:#083b66;stroke-opacity:1;font-style:normal;"
   id="text3797"
   x="89.119308"
   y="-18.679602"><tspan
     x="89.119308"
     y="-18.679602"
     sodipodi:role="line"
     id="tspan3795"
     style="font-style:normal;font-variant:normal;font-weight:normal;font-stretch:normal;font-size:30px;font-family:'Copperplate Gothic Bold';-inkscape-font-specification:'Copperplate Gothic Bold, ';fill:#083b66;fill-opacity:1;stroke:#083b66;stroke-opacity:1;">OftenOn</tspan></text>


<text
   xml:space="preserve"
   style="font-style:normal;font-weight:normal;font-size:30px;line-height:1.25;font-family:sans-serif;letter-spacing:0px;word-spacing:0px;fill:#000000;fill-opacity:1;stroke:none;stroke-width:0.75"
   x="93.75"
   y="-31.125002"
   id="text146"
   transform="scale(1,-1)"><tspan
     sodipodi:role="line"
     id="tspan144"
     x="93.75"
     y="-3.7550924"
     style="stroke-width:0.75" /></text>


<text
   xml:space="preserve"
   style="font-style:normal;font-weight:normal;font-size:30px;line-height:1.25;font-family:sans-serif;letter-spacing:0px;word-spacing:0px;fill:#000000;fill-opacity:1;stroke:none;stroke-width:0.75"
   x="97.6875"
   y="-29.625002"
   id="text182"
   transform="scale(1,-1)"><tspan
     sodipodi:role="line"
     id="tspan180"
     x="97.6875"
     y="-2.2550924"
     style="font-style:normal;font-variant:normal;font-weight:normal;font-stretch:normal;font-family:'holtwood one sc';-inkscape-font-specification:'holtwood one sc';stroke-width:0.75" /></text>


<text
   xml:space="preserve"
   style="font-style:normal;font-weight:normal;font-size:30px;line-height:1.25;font-family:sans-serif;letter-spacing:0px;word-spacing:0px;fill:#000000;fill-opacity:1;stroke:none;stroke-width:0.75"
   x="175.875"
   y="-11.437502"
   id="text3875"
   transform="scale(1,-1)"><tspan
     sodipodi:role="line"
     id="tspan3873"
     x="175.875"
     y="15.932407"
     style="stroke-width:0.75" /></text>


</g><g
     inkscape:groupmode="layer"
     id="layer2"
     inkscape:label="logo"
     style="display:inline"
     transform="translate(-1.1230164e-6,2.8769836e-6)"><path
       inkscape:connector-curvature="0"
       id="path3777"
       style="display:inline;fill:#083b66;fill-opacity:1;stroke:#000000;stroke-width:7.41291237;stroke-linecap:butt;stroke-linejoin:miter;stroke-miterlimit:10;stroke-dasharray:none;stroke-opacity:1"
       d="M 106.29354,60 C 106.29354,85.567278 85.567276,106.29354 60,106.29354 34.432724,106.29354 13.706458,85.567278 13.706458,60 13.706458,34.432723 34.432724,13.706457 60,13.706457 c 25.567276,0 46.29354,20.726266 46.29354,46.293543 z" /><rect
       style="opacity:1;fill:#000000;fill-opacity:0;fill-rule:nonzero;stroke:#ffa500;stroke-width:3;stroke-linejoin:round;stroke-miterlimit:4;stroke-dasharray:none;stroke-dashoffset:0;stroke-opacity:1"
       id="rect1789"
       width="11.057683"
       height="9.5576839"
       x="40.30267"
       y="42.865681" /><rect
       y="42.865681"
       x="69.24498"
       height="9.5576839"
       width="11.057683"
       id="rect1877"
       style="opacity:1;fill:#000000;fill-opacity:0;fill-rule:nonzero;stroke:#ffa500;stroke-width:3;stroke-linejoin:round;stroke-miterlimit:4;stroke-dasharray:none;stroke-dashoffset:0;stroke-opacity:1" /><rect
       style="opacity:1;fill:#000000;fill-opacity:0;fill-rule:nonzero;stroke:#ffa500;stroke-width:3;stroke-linejoin:round;stroke-miterlimit:4;stroke-dasharray:none;stroke-dashoffset:0;stroke-opacity:1"
       id="rect1879"
       width="11.057683"
       height="9.5576839"
       x="40.30267"
       y="57.865681" /><rect
       y="27.865679"
       x="54.244987"
       height="9.5576839"
       width="11.057683"
       id="rect1881"
       style="opacity:1;fill:#000000;fill-opacity:0;fill-rule:nonzero;stroke:#ffa500;stroke-width:3;stroke-linejoin:round;stroke-miterlimit:4;stroke-dasharray:none;stroke-dashoffset:0;stroke-opacity:1" /><rect
       style="opacity:1;fill:#000000;fill-opacity:0;fill-rule:nonzero;stroke:#ffa500;stroke-width:3;stroke-linejoin:round;stroke-miterlimit:4;stroke-dasharray:none;stroke-dashoffset:0;stroke-opacity:1"
       id="rect1883"
       width="11.057683"
       height="9.5576839"
       x="40.30267"
       y="73.307991" /><rect
       y="58.307999"
       x="69.24498"
       height="9.5576839"
       width="11.057683"
       id="rect1885"
       style="opacity:1;fill:#000000;fill-opacity:0;fill-rule:nonzero;stroke:#ffa500;stroke-width:3;stroke-linejoin:round;stroke-miterlimit:4;stroke-dasharray:none;stroke-dashoffset:0;stroke-opacity:1" /><path
       style="fill:none;stroke:#ffa500;stroke-width:3.05941176;stroke-linecap:butt;stroke-linejoin:miter;stroke-miterlimit:4;stroke-dasharray:none;stroke-opacity:1"
       d="m 60.302668,37.86568 v 65 z"
       id="path1897"
       inkscape:connector-curvature="0" /><path
       style="fill:none;stroke:#ffa500;stroke-width:3;stroke-linecap:butt;stroke-linejoin:miter;stroke-miterlimit:4;stroke-dasharray:none;stroke-opacity:1"
       d="m 50.802668,47.86568 h 17 z"
       id="path1899"
       inkscape:connector-curvature="0" /><path
       style="fill:none;stroke:#ffa500;stroke-width:3;stroke-linecap:butt;stroke-linejoin:miter;stroke-miterlimit:4;stroke-dasharray:none;stroke-opacity:1"
       d="m 51.302668,62.86568 h 17 -17 17 -17"
       id="path1901"
       inkscape:connector-curvature="0" /><path
       style="fill:none;stroke:#ffa500;stroke-width:3;stroke-linecap:butt;stroke-linejoin:miter;stroke-miterlimit:4;stroke-dasharray:none;stroke-opacity:1"
       d="m 51.802668,77.86568 h 8.5 z"
       id="path1903"
       inkscape:connector-curvature="0" /></g><g
     inkscape:groupmode="layer"
     id="layer1"
     inkscape:label="powershell"
     style="display:inline"
     transform="translate(-1.1230164e-6,2.8769836e-6)"><g
       style="display:inline"
       id="g4602"
       transform="matrix(1.7957006,0,0,-1.7957006,-114.41444,110.84337)"><g
         transform="translate(57.355503,-11.099658)"
         id="g3799"><g
           id="g3801"><g
             id="g3807"><g
               id="g3809"><path
                 inkscape:connector-curvature="0"
                 id="path3817"
                 style="fill:url(#linearGradient3815);stroke:none"
                 d="m 45.738,32.201 c -0.58,0 -1.086,-0.396 -1.226,-0.96 v 0 L 40.066,13.216 C 39.87,12.419 40.472,11.65 41.292,11.65 v 0 h 20.919 c 0.588,0 1.099,0.406 1.23,0.98 v 0 l 4.144,18.025 c 0.182,0.791 -0.419,1.546 -1.231,1.546 v 0 z" /></g></g></g></g><g
         transform="translate(57.214602,-11.06554)"
         id="g3819"><g
           clip-path="url(#clipPath3825)"
           id="g3821"><g
             transform="translate(62.2106,11.6502)"
             id="g3827"><path
               inkscape:connector-curvature="0"
               id="path3835"
               style="fill:none;stroke:url(#linearGradient3833);stroke-width:0.23;stroke-linecap:butt;stroke-linejoin:miter;stroke-miterlimit:10;stroke-dasharray:none;stroke-opacity:1"
               d="m 0,0 h -20.918 c -0.82,0 -1.423,0.769 -1.226,1.565 l 4.446,18.025 c 0.139,0.564 0.645,0.961 1.226,0.961 H 4.144 c 0.812,0 1.412,-0.755 1.231,-1.546 L 1.231,0.98 C 1.099,0.406 0.588,0 0,0 Z" /></g><g
             transform="translate(46.54,13.7406)"
             id="g3837"><path
               inkscape:connector-curvature="0"
               id="path3839"
               style="fill:#3462a8;fill-opacity:1;fill-rule:nonzero;stroke:none"
               d="m 0,0 c -0.391,0 -0.776,0.181 -1.023,0.521 -0.41,0.565 -0.284,1.355 0.28,1.764 l 8.26,5.994 -5.085,5.471 c -0.475,0.511 -0.446,1.31 0.065,1.785 0.511,0.474 1.31,0.445 1.785,-0.066 L 10.338,8.954 C 10.584,8.689 10.705,8.332 10.67,7.972 10.635,7.612 10.448,7.284 10.155,7.072 L 0.741,0.241 C 0.517,0.078 0.257,0 0,0" /></g><g
             transform="translate(46.3104,13.9893)"
             id="g3841"><path
               inkscape:connector-curvature="0"
               id="path3843"
               style="fill:#ffffff;fill-opacity:1;fill-rule:nonzero;stroke:none"
               d="m 0,0 c -0.391,0 -0.776,0.181 -1.023,0.521 -0.41,0.565 -0.284,1.355 0.28,1.764 l 8.26,5.994 -5.085,5.471 c -0.475,0.511 -0.446,1.31 0.065,1.785 0.511,0.474 1.31,0.445 1.785,-0.066 L 10.338,8.954 C 10.584,8.689 10.705,8.332 10.67,7.972 10.635,7.612 10.448,7.284 10.155,7.072 L 0.741,0.241 C 0.517,0.078 0.257,0 0,0" /></g><g
             transform="translate(58.8177,14.2493)"
             id="g3845"><path
               inkscape:connector-curvature="0"
               id="path3847"
               style="fill:#3462a8;fill-opacity:1;fill-rule:nonzero;stroke:none"
               d="m 0,0 h -4.958 c -0.602,0 -1.091,0.488 -1.091,1.091 0,0.602 0.489,1.09 1.091,1.09 H 0 c 0.602,0 1.091,-0.488 1.091,-1.09 C 1.091,0.488 0.602,0 0,0" /></g><g
             transform="translate(58.6263,14.4598)"
             id="g3849"><path
               inkscape:connector-curvature="0"
               id="path3851"
               style="fill:#ffffff;fill-opacity:1;fill-rule:nonzero;stroke:none"
               d="m 0,0 h -4.958 c -0.602,0 -1.091,0.488 -1.091,1.091 0,0.602 0.489,1.09 1.091,1.09 H 0 c 0.602,0 1.091,-0.488 1.091,-1.09 C 1.091,0.488 0.602,0 0,0" /></g></g></g></g></g></svg>